<svg xmlns="http://www.w3.org/2000/svg" xmlns:xlink="http://www.w3.org/1999/xlink" width="200" height="73.576" viewBox="0 0 200 73.576">
  <defs>
    <clipPath id="clip-path">
      <rect id="Rectangle_6" data-name="Rectangle 6" width="200" height="73.576" fill="none"/>
    </clipPath>
  </defs>
  <g id="icon-browsing" transform="translate(0 0)">
    <g id="Group_14" data-name="Group 14" transform="translate(0 0)" clip-path="url(#clip-path)">
      <path id="Path_6" data-name="Path 6" d="M43.554,43.238a22.771,22.771,0,0,0-4.806-24.974h0A22.7,22.7,0,1,0,31.614,55.18L43.257,66.823a3.189,3.189,0,0,0,4.512,0L55.2,59.395a3.19,3.19,0,0,0,0-4.514Zm1.959,16.816-11-11a3.194,3.194,0,0,0-3.822-.524,16.314,16.314,0,1,1,3.542-25.753l0,0a16.36,16.36,0,0,1,2.67,19.537,3.191,3.191,0,0,0,.524,3.823l11,11Z" transform="translate(0 5.818)" fill="#084c8d"/>
      <path id="Path_7" data-name="Path 7" d="M29.377,21.623a13.691,13.691,0,1,0,0,19.372,13.714,13.714,0,0,0,0-19.372Zm-4.512,14.86a7.312,7.312,0,1,1,0-10.348,7.326,7.326,0,0,1,0,10.348" transform="translate(3.003 8.827)" fill="#084c8d"/>
      <path id="Path_8" data-name="Path 8" d="M144.932,29.539,112.821,3.054a3.192,3.192,0,0,0-5.178,2.99L114.525,47.1a3.191,3.191,0,0,0,5.7,1.387l4.1-5.461,2.7,4.614a3.2,3.2,0,0,0,4.35,1.151l7.166-4.138a3.194,3.194,0,0,0,1.1-4.481l-2.576-4.038,6.327-.977a3.192,3.192,0,0,0,1.542-5.615m-15.879,5.9,3.41,5.348-1.533.886L127.4,35.659a3.194,3.194,0,0,0-2.571-1.573c-.062,0-.122,0-.182,0a3.192,3.192,0,0,0-2.552,1.274l-2.51,3.343L115.35,13.413l20.031,16.522-4.125.638a3.191,3.191,0,0,0-2.2,4.869" transform="translate(53.908 1.165)" fill="#084c8d"/>
      <path id="Path_9" data-name="Path 9" d="M109.733,0h-20.1L89.6,0l-.032,0H69.206a36.213,36.213,0,0,0,0,72.427h40.527a36.213,36.213,0,1,0,0-72.427m25.66,51.349a25.66,25.66,0,0,0-8.152-4.113,33.37,33.37,0,0,0,1.717-7.832h10.429a29.55,29.55,0,0,1-3.994,11.945M39.551,39.406h10.7a33.375,33.375,0,0,0,1.687,7.756,26,26,0,0,0-8.391,4.189,29.6,29.6,0,0,1-3.994-11.945m3.886-18.149a25.6,25.6,0,0,0,8.413,4.248,33.406,33.406,0,0,0-1.6,7.519h-10.7a29.579,29.579,0,0,1,3.886-11.766m63.171,11.766c-.044-1.258-.117-2.477-.213-3.667a120.968,120.968,0,0,0,14.764-2.235,27.105,27.105,0,0,1,1.387,5.9Zm-17,33.021H89.6c-3.209-.006-7.477-6.313-9.512-16.889,2.931-.149,6.049-.236,9.384-.236,3.431,0,6.643.089,9.648.246-2.035,10.569-6.3,16.873-9.51,16.879M89.47,42.537c-3.125,0-6.625.093-10.273.3q-.151-1.668-.224-3.431h21.26q-.074,1.772-.227,3.446c-3.744-.218-7.337-.315-10.537-.315m-10.5-9.513q.068-1.626.2-3.167c3.656.207,7.164.3,10.3.3,3.206,0,6.809-.1,10.56-.315q.135,1.549.2,3.182ZM89.6,6.384c3.236,0,7.553,6.406,9.569,17.143-3.022.158-6.25.248-9.7.248-3.355,0-6.49-.087-9.438-.237C82.046,12.793,86.366,6.384,89.6,6.384m16.016,16.661a44.1,44.1,0,0,0-5.09-14.988,32.747,32.747,0,0,1,17.7,13.155,115.135,115.135,0,0,1-12.605,1.833M78.676,8.057A44.113,44.113,0,0,0,73.583,23.07a116.586,116.586,0,0,1-12.635-1.807A32.739,32.739,0,0,1,78.676,8.057M72.809,29.381c-.095,1.183-.168,2.393-.212,3.643H56.659a27.048,27.048,0,0,1,1.367-5.845,122.523,122.523,0,0,0,14.782,2.2M56.659,39.406H72.6q.072,2.013.231,3.906A122.559,122.559,0,0,0,58.118,45.5a27.126,27.126,0,0,1-1.459-6.09M73.63,49.619a43.922,43.922,0,0,0,5.045,14.752A32.8,32.8,0,0,1,61.1,51.408,116.135,116.135,0,0,1,73.63,49.619m26.9,14.752a43.859,43.859,0,0,0,5.04-14.726,115.561,115.561,0,0,1,12.5,1.807,32.791,32.791,0,0,1-17.542,12.919m5.845-21.035q.16-1.907.233-3.93h15.938a27.089,27.089,0,0,1-1.48,6.145,121.519,121.519,0,0,0-14.69-2.215m22.583-10.312a33.306,33.306,0,0,0-1.629-7.6,25.272,25.272,0,0,0,8.173-4.17,29.577,29.577,0,0,1,3.885,11.766Zm2.778-16.882c-.838.926-3.2,2.178-7.07,3.4a37.657,37.657,0,0,0-12.5-13.038,29.726,29.726,0,0,1,19.575,9.635M67.066,6.492A37.654,37.654,0,0,0,54.492,19.629c-4.047-1.25-6.492-2.534-7.317-3.455A29.727,29.727,0,0,1,67.066,6.492M47.335,56.433c.949-.943,3.367-2.185,7.29-3.394a37.7,37.7,0,0,0,12.443,12.9,29.722,29.722,0,0,1-19.734-9.5m64.824,9.489a37.717,37.717,0,0,0,12.38-12.813c3.787,1.186,6.133,2.4,7.067,3.322a29.732,29.732,0,0,1-19.447,9.491" transform="translate(16.53 0)" fill="#084c8d"/>
    </g>
  </g>
</svg>
