<svg id="icon-socialmedia" xmlns="http://www.w3.org/2000/svg" xmlns:xlink="http://www.w3.org/1999/xlink" width="154" height="71.821" viewBox="0 0 154 71.821">
  <defs>
    <clipPath id="clip-path">
      <rect id="Rectangle_9" data-name="Rectangle 9" width="154" height="71.821" fill="none"/>
    </clipPath>
  </defs>
  <g id="Group_17" data-name="Group 17" clip-path="url(#clip-path)">
    <path id="Path_20" data-name="Path 20" d="M128.863,26.541H85.931a16.848,16.848,0,1,0,0,33.7h42.74L142.1,68.3a2.381,2.381,0,0,0,3.606-2.042V43.389a16.867,16.867,0,0,0-16.848-16.848M140.949,62.05l-10.393-6.236a2.371,2.371,0,0,0-1.225-.339h-43.4a12.086,12.086,0,1,1,0-24.171h42.932a12.1,12.1,0,0,1,12.086,12.086Z" transform="translate(8.289 3.184)" fill="#084c8d"/>
    <path id="Path_21" data-name="Path 21" d="M89.716,39.362a2.84,2.84,0,1,0,2.84,2.84,2.84,2.84,0,0,0-2.84-2.84" transform="translate(10.424 4.723)" fill="#084c8d"/>
    <path id="Path_22" data-name="Path 22" d="M103.347,39.362a2.84,2.84,0,1,0,2.84,2.84,2.84,2.84,0,0,0-2.84-2.84" transform="translate(12.059 4.723)" fill="#084c8d"/>
    <path id="Path_23" data-name="Path 23" d="M116.977,39.362a2.84,2.84,0,1,0,2.84,2.84,2.84,2.84,0,0,0-2.84-2.84" transform="translate(13.695 4.723)" fill="#084c8d"/>
    <path id="Path_24" data-name="Path 24" d="M64.584,26.924c2.915-3.31,7.805-5.362,13.116-5.362a18.3,18.3,0,0,1,11.387,3.719,2.381,2.381,0,0,0,2.965-3.727,21.386,21.386,0,0,0-6.446-3.469,10.781,10.781,0,1,0-15.8.018,20.183,20.183,0,0,0-9.5,6.531,27.2,27.2,0,0,0-2.57-.936,12.461,12.461,0,1,0-17.2-.007,27.12,27.12,0,0,0-2.564.942,20.19,20.19,0,0,0-9.5-6.528,10.781,10.781,0,1,0-15.787-.01C5.244,20.635,0,26.648,0,33.648a2.381,2.381,0,0,0,4.762,0c0-6.664,7.1-12.086,15.819-12.086,5.318,0,10.213,2.057,13.127,5.376-5.365,3.623-8.789,9.093-8.789,15.2a2.381,2.381,0,1,0,4.762,0c0-5.156,3.4-9.712,8.572-12.408.024-.013.049-.02.074-.034l.012-.009a23.625,23.625,0,0,1,10.8-2.528,23.143,23.143,0,0,1,12.589,3.576c4.367,2.865,6.87,7.021,6.87,11.4a2.381,2.381,0,1,0,4.762,0c0-5.928-3.2-11.456-8.777-15.216m7.1-16.143A6.019,6.019,0,1,1,77.7,16.8a6.026,6.026,0,0,1-6.019-6.019m-57.119,0A6.019,6.019,0,1,1,20.581,16.8a6.026,6.026,0,0,1-6.019-6.019m26.88,3.92a7.7,7.7,0,1,1,7.7,7.7,7.707,7.707,0,0,1-7.7-7.7" fill="#084c8d"/>
  </g>
</svg>
