<svg xmlns="http://www.w3.org/2000/svg" xmlns:xlink="http://www.w3.org/1999/xlink" width="148.581" height="75" viewBox="0 0 148.581 75">
  <defs>
    <clipPath id="clip-path">
      <rect id="Rectangle_8" data-name="Rectangle 8" width="148.581" height="75" fill="none"/>
    </clipPath>
  </defs>
  <g id="icon-computers" transform="translate(0 0)">
    <g id="Group_16" data-name="Group 16" transform="translate(0 0)" clip-path="url(#clip-path)">
      <path id="Path_16" data-name="Path 16" d="M14.875,17.822,41.162,30.133a2.949,2.949,0,0,0,2.505,0L69.953,17.822a2.954,2.954,0,0,0-2.505-5.351L42.414,24.2,17.38,12.471a2.954,2.954,0,0,0-2.505,5.351" transform="translate(5.13 4.747)" fill="#084c8d"/>
      <path id="Path_17" data-name="Path 17" d="M78.533,6.629H10.6A2.954,2.954,0,0,0,7.646,9.583V48.032A2.953,2.953,0,0,0,10.6,50.986h.013L78.207,50.7a2.953,2.953,0,0,0,2.941-2.946l.339-38.145a2.955,2.955,0,0,0-2.954-2.98M75.267,44.8l-61.713.261V12.537h62Z" transform="translate(2.977 2.581)" fill="#084c8d"/>
      <path id="Path_18" data-name="Path 18" d="M136.842,69.2,95.089,57.578V2.952A2.952,2.952,0,0,0,92.136,0H2.952A2.953,2.953,0,0,0,0,2.952V59.824c0,.058.014.114.018.172a2.653,2.653,0,0,0,.031.318c.017.093.039.181.063.27s.053.189.086.278a2.614,2.614,0,0,0,.118.263c.042.085.083.167.132.247s.1.156.161.229a2.589,2.589,0,0,0,.185.224c.063.067.126.128.195.189a2.934,2.934,0,0,0,.228.189c.078.056.156.1.239.153s.164.094.251.136A2.973,2.973,0,0,0,2,62.6c.057.019.108.049.167.065L46.074,74.892a2.951,2.951,0,0,0,.792.108h89.183a2.954,2.954,0,0,0,.793-5.8M5.906,5.906H89.183V56.868H5.906ZM47.269,69.092,24.581,62.777H91.73l22.692,6.315Z" transform="translate(0 -0.001)" fill="#084c8d"/>
      <path id="Path_19" data-name="Path 19" d="M118.1,33.349,80.361,2.225a2.953,2.953,0,0,0-4.792,2.766l8.086,48.243a2.954,2.954,0,0,0,5.276,1.285l5.535-7.374L98.25,53.6a2.956,2.956,0,0,0,4.026,1.064L110.7,49.8a2.957,2.957,0,0,0,1.014-4.147l-3.683-5.773,8.639-1.335a2.953,2.953,0,0,0,1.428-5.2m-15.442,1.385a2.956,2.956,0,0,0-2.041,4.507l4.456,6.987-3.207,1.852-4.546-7.753a2.95,2.95,0,0,0-2.38-1.455c-.057,0-.113-.006-.168-.006a2.95,2.95,0,0,0-2.362,1.181l-4.064,5.415L82.7,11.813l26.554,21.9Z" transform="translate(29.411 0.603)" fill="#084c8d"/>
    </g>
  </g>
</svg>
