<svg xmlns="http://www.w3.org/2000/svg" xmlns:xlink="http://www.w3.org/1999/xlink" width="200" height="47.568" viewBox="0 0 200 47.568">
  <defs>
    <clipPath id="clip-path">
      <rect id="Rectangle_7" data-name="Rectangle 7" width="200" height="47.568" fill="none"/>
    </clipPath>
  </defs>
  <g id="icon-passwords" transform="translate(0 0)">
    <g id="Group_15" data-name="Group 15" transform="translate(0 0)" clip-path="url(#clip-path)">
      <path id="Path_10" data-name="Path 10" d="M96.132,19.289,86.61,22.384V12.371a2.829,2.829,0,1,0-5.657,0V22.384L71.43,19.289a2.829,2.829,0,0,0-1.75,5.381L79.2,27.765l-5.885,8.1a2.828,2.828,0,1,0,4.576,3.326l5.886-8.1,5.886,8.1a2.828,2.828,0,1,0,4.576-3.326l-5.886-8.1L97.88,24.67a2.829,2.829,0,0,0-1.748-5.381" transform="translate(22.384 3.153)" fill="#084c8d"/>
      <path id="Path_11" data-name="Path 11" d="M125.362,19.289l-9.522,3.095V12.371a2.829,2.829,0,1,0-5.657,0V22.384l-9.522-3.095a2.829,2.829,0,0,0-1.75,5.381l9.524,3.095-5.885,8.1a2.828,2.828,0,1,0,4.576,3.326l5.886-8.1,5.886,8.1a2.828,2.828,0,1,0,4.576-3.326l-5.886-8.1,9.524-3.095a2.829,2.829,0,0,0-1.748-5.381" transform="translate(32.044 3.153)" fill="#084c8d"/>
      <path id="Path_12" data-name="Path 12" d="M158.156,21.105a2.825,2.825,0,0,0-3.564-1.816l-9.522,3.095V12.371a2.829,2.829,0,1,0-5.657,0V22.384l-9.522-3.095a2.829,2.829,0,0,0-1.75,5.381l9.524,3.095-5.885,8.1a2.828,2.828,0,0,0,4.576,3.325l5.886-8.1,5.886,8.1a2.828,2.828,0,1,0,4.576-3.325l-5.885-8.1,9.524-3.095a2.829,2.829,0,0,0,1.815-3.564" transform="translate(41.705 3.153)" fill="#084c8d"/>
      <path id="Path_13" data-name="Path 13" d="M66.9,19.289l-9.524,3.095V12.371a2.829,2.829,0,1,0-5.657,0V22.384L42.2,19.289a2.829,2.829,0,0,0-1.75,5.381l9.524,3.095-5.885,8.1a2.828,2.828,0,1,0,4.576,3.326l5.886-8.1,5.886,8.1a2.828,2.828,0,1,0,4.576-3.326l-5.885-8.1,9.524-3.095A2.829,2.829,0,1,0,66.9,19.289" transform="translate(12.723 3.153)" fill="#084c8d"/>
      <path id="Path_14" data-name="Path 14" d="M35.76,14.968H33.349V9.419C33.349,4.137,28.247,0,21.734,0H16.855C10.341,0,5.24,4.137,5.24,9.419v5.55H2.829A2.828,2.828,0,0,0,0,17.8V44.74a2.829,2.829,0,0,0,2.829,2.829H35.76a2.829,2.829,0,0,0,2.829-2.829V17.8a2.828,2.828,0,0,0-2.829-2.829M10.9,9.419c0-1.78,2.447-3.761,5.959-3.761h4.879c3.513,0,5.958,1.981,5.958,3.761v5.55H10.9ZM32.931,41.911H5.657V20.624H32.931Z" transform="translate(0 -0.001)" fill="#084c8d"/>
      <path id="Path_15" data-name="Path 15" d="M15.391,27.472a3.581,3.581,0,1,0-3.58-3.58,3.581,3.581,0,0,0,3.58,3.58" transform="translate(3.904 6.712)" fill="#084c8d"/>
    </g>
  </g>
</svg>
